# xmcd
#
# Track frame offsets: 
#        150
#        13691
#        27654
#        39043
#        51993
#        63749
#        80132
#        93792
#        105539
#        118900
#        131051
#        142976
#        154926
#        168551
#        183485
#        198553
#        213383
#        228547
#        241071
#        254384
#        270484
#        281495
#        293840
#        308970
#
# Disc length: 4263 seconds
#
# Revision: 0
# Processed by: cddbd v1.5.2PL0 Copyright (c) Steve Scherf et al.
# Submitted via: ExactAudioCopy v0.95b4
#
DISCID=6410a518
DTITLE=Ретро-бэнд Граммофон - The Best
DYEAR=1996
DGENRE=музыка 30-40 гг
TTITLE0=Моя красавица
TTITLE1=Лунная рапсодия
TTITLE2=Утомлённое солнце
TTITLE3=Мне бесконечно жаль
TTITLE4=Джозеф
TTITLE5=Романс Надира
TTITLE6=Моё последнее танго
TTITLE7=Ревность
TTITLE8=Татьяна
TTITLE9=Андрюша
TTITLE10=Маленький цветок
TTITLE11=Концертино
TTITLE12=Горячий поцелуй
TTITLE13=Домовой
TTITLE14=Осень
TTITLE15=Серебрянная гитара
TTITLE16=Скажите почему
TTITLE17=Я о любви Вас не молю
TTITLE18=Чёрные глаза
TTITLE19=Неудачное свидание
TTITLE20=Цветущий май
TTITLE21=Дымок от папиросы
TTITLE22=Красивая мечта
TTITLE23=Дружба
EXTD=
EXTT0=
EXTT1=
EXTT2=
EXTT3=
EXTT4=
EXTT5=
EXTT6=
EXTT7=
EXTT8=
EXTT9=
EXTT10=
EXTT11=
EXTT12=
EXTT13=
EXTT14=
EXTT15=
EXTT16=
EXTT17=
EXTT18=
EXTT19=
EXTT20=
EXTT21=
EXTT22=
EXTT23=
PLAYORDER=
